<?xml version="1.0" encoding="utf-8" ?>
<svg baseProfile="full" fill="none" height="768" stroke="black" version="1.1" width="1024" xmlns="http://www.w3.org/2000/svg" xmlns:ev="http://www.w3.org/2001/xml-events" xmlns:xlink="http://www.w3.org/1999/xlink">
  <defs/>
  <polyline points="0,393.99933334666656 16,425.36858286844006 32,456.57456949313956 48,487.4941374482166 64,518.0052613247594 80,547.9875276560338 96,577.3226101344248 112,605.8947365913147 128,633.5911458969408 144,660.30253297706 160,685.9234801901387 176,710.3528733626243 192,733.4943008403934 208,755.2564339815035 224,775.5533875886194 240,794.3050588586505 256,811.4374435119171 272,826.8829278532351 288,840.5805556122798 304,852.4762685101371 320,862.5231196026334 336,870.6814585584765 352,876.9190881409979 368,881.2113912759376 384,883.5414282037883 400,883.9000033332889 416,882.2857015322204 432,878.7048937122872 448,873.1717116860393 464,865.7079923950638 480,856.3431917295532 496,845.1142682793636 512,832.0655374753462 528,817.248496696586 544,800.721622033775 560,782.5501375107963 576,762.8057576753006 592,741.5664045741494 608,718.9159002306956 624,694.9436358375515 640,669.7442189703913 656,643.4171002150711 672,616.0661806816015 688,587.7994019539349 704,558.7283200938462 720,528.9676653801234 736,498.63488952057185 752,467.84970212378187 768,436.73359825999444 784,405.40937897556415 800,374.0006666533322 816,342.63141713155863 832,311.42543050685913 848,280.50586255178206 864,249.99473867523923 880,220.01247234396482 896,190.6773898655738 912,162.10526340868392 928,134.4088541030577 944,107.69746702293861 960,82.07651980985992 976,57.64712663737424 992,34.50569915960534 1008,12.7435660184953 1024,-7.553387588620637 1040,-26.305058858651364 1056,-43.43744351191782 1072,-58.88292785323563 1088,-72.5805556122802 1104,-84.4762685101374 1120,-94.52311960263364 1136,-102.68145855847655 1152,-108.91908814099793 1168,-113.2113912759375 1184,-115.54142820378831 1200,-115.90000333328885 1216,-114.2857015322204 1232,-110.7048937122874 1248,-105.17171168603954 1264,-97.7079923950642 1280,-88.34319172955367 1296,-77.11426827936441 1312,-64.06553747534713 1328,-49.248496696587154 1344,-32.72162203377633 1360,-14.550137510797924 1376,5.194242324697541 1392,26.43359542584841 1408,49.084099769301986 1424,73.05636416244562 1440,98.25578102960554 1456,124.58289978492547 1472,151.93381931839465 1488,180.20059804606106 1504,209.27167990614936 1520,239.0323346198718 1536,269.3651104794231 1552,300.1502978762128 1568,331.26640174 1584,362.59062102443005 1600,393.9993333466618 1616,425.3685828684351 1632,456.57456949313445 1648,487.4941374482114 1664,518.0052613247541 1680,547.9875276560284 1696,577.3226101344194 1712,605.8947365913093 1728,633.5911458969355 1744,660.3025329770546 1760,685.9234801901334 1776,710.3528733626193 1792,733.4943008403884 1808,755.2564339814987 1824,775.553387588615 1840,794.3050588586462 1856,811.4374435119132 1872,826.8829278532315 1888,840.5805556122766 1904,852.4762685101342 1920,862.523119602631 1936,870.6814585584746 1952,876.9190881409965 1968,881.2113912759365 1984,883.541428203788 2000,883.9000033332891 2016,882.2857015322212 2032,878.7048937122887 2048,873.1717116860414 2064,865.7079923950666 2080,856.3431917295566 2096,845.1142682793679 2112,832.0655374753511 2128,817.2484966965917 2144,800.7216220337813 2160,782.5501375108033 2176,762.8057576753083 2192,741.5664045741578 2208,718.9159002307047 2224,694.9436358375614 2240,669.7442189704018 2256,643.4171002150822 2272,616.0661806816133 2288,587.7994019539472 2304,558.728320093859 2320,528.9676653801367 2336,498.6348895205856 2352,467.849702123796 2368,436.7335982600089 2384,405.4093789755789 2400,374.0006666533472 2416,342.6314171315738 2432,311.42543050687436 2448,280.50586255179735 2464,249.99473867525455 2480,220.01247234398005 2496,190.67738986558882 2512,162.10526340869876 2528,134.40885410307223 2544,107.69746702295276 2560,82.07651980987362 2576,57.64712663738749 2592,34.50569915961796 2608,12.743566018507295 2624,-7.553387588609496 2640,-26.305058858641132 2656,-43.437443511908555 2672,-58.882927853227386 2688,-72.58055561227292 2704,-84.47626851013115 2720,-94.52311960262847 2736,-102.68145855847246 2752,-108.91908814099492 2768,-113.21139127593563 2784,-115.54142820378758 2800,-115.90000333328925 2816,-114.28570153222188 2832,-110.70489371228996 2848,-105.1717116860433 2864,-97.70799239506903 2880,-88.34319172955958 2896,-77.11426827937134 2912,-64.06553747535503 2928,-49.24849669659608 2944,-32.72162203378622 2960,-14.550137510808725 2976,5.194242324685888 2992,26.43359542583596 3008,49.084099769288684 3024,73.05636416243158 3040,98.25578102959088 3056,124.58289978491013 3072,151.93381931837882 3088,180.20059804604472 3104,209.2716799061326 3120,239.03233461985468 3136,269.3651104794057 3152,300.15029787619517 3168,331.2664017399822 3184,362.59062102441214"/>
</svg>
