<?xml version="1.0" encoding="utf-8" ?>
<svg baseProfile="full" fill="none" height="768" stroke="black" version="1.1" width="1024" xmlns="http://www.w3.org/2000/svg" xmlns:ev="http://www.w3.org/2001/xml-events" xmlns:xlink="http://www.w3.org/1999/xlink">
  <defs/>
  <polyline points="2,394 16,426 33,456 50,486 63,516 79,549 96,577 112,605 128,633 143,658 160,686 176,710 191,733 208,753 224,776 241,794 256,809 271,826 287,841 303,851 320,862 336,869 351,874 367,882 385,883 401,883 415,880 432,877 448,872 463,865 480,857 497,844 512,832 528,815 542,800 560,781 575,760 591,742 608,719 624,695 640,669 655,645 673,615 687,587 703,559 719,528 736,499 751,467 767,434 785,405 798,373 816,342 831,311 849,281 864,250 880,220 894,190 911,163 928,134 945,106 961,82 977,57 992,33 1007,14 1025,-7 1040,-26 1056,-44 1070,-57 1088,-72 1105,-83 1120,-94 1136,-103 1152,-108 1164,-112 1185,-114 1201,-117 1215,-114 1232,-112 1248,-105 1262,-96 1277,-89 1295,-77 1311,-63 1328,-49 1343,-33 1360,-13 1375,3 1392,27 1407,48 1424,73 1439,98 1456,125 1470,153 1488,177 1504,209 1520,240 1534,268 1551,300 1566,333 1584,362 1600,393 1615,425 1631,456 1649,486 1663,517 1681,547 1695,577 1711,605 1728,634 1744,660 1760,685 1777,711 1791,732 1807,755 1823,776 1839,793 1856,810 1870,827 1889,840 1904,851 1921,861 1935,872 1952,876 1968,881 1983,884 1999,884 2016,881 2031,879 2049,873 2064,863 2079,855 2092,846 2110,831 2129,817 2145,799 2158,780 2174,762 2191,741 2207,719 2226,692 2242,670 2256,643 2271,616 2287,586 2304,558 2320,529 2336,498 2351,465 2369,435 2383,404 2399,374 2417,343 2433,313 2447,280 2464,252 2478,218 2496,189 2512,163 2527,135 2543,109 2560,82 2575,58 2591,34 2607,11 2624,-7 2638,-25 2656,-42 2670,-59 2687,-74 2703,-85 2719,-94 2735,-101 2753,-108 2767,-112 2783,-115 2798,-117 2816,-113 2832,-111 2847,-105 2864,-97 2881,-88 2896,-75 2911,-64 2928,-49 2945,-33 2960,-13 2974,3 2990,28 3008,48 3024,71 3038,99 3057,123 3071,151 3088,181 3104,208 3120,238 3134,269 3152,300 3170,332 3185,362"/>
</svg>
