<?xml version="1.0" encoding="utf-8" ?>
<svg baseProfile="full" fill="none" height="768" stroke="black" version="1.1" width="1024" xmlns="http://www.w3.org/2000/svg" xmlns:ev="http://www.w3.org/2001/xml-events" xmlns:xlink="http://www.w3.org/1999/xlink">
  <defs/>
  <polyline points="1,394 17,428 32,460 47,488 66,520 78,551 92,578 110,612 136,634 145,664 163,686 179,709 190,733 205,753 224,767 240,799 253,810 277,828 292,836 301,849 321,864 328,868 351,875 364,884 382,881 400,885 415,882 437,876 446,873 460,864 472,854 499,851 509,834 528,819 547,798 563,783 571,763 589,741 605,712 625,696 635,666 655,642 671,618 686,588 705,555 718,534 732,501 748,468 769,435 789,406 798,371 817,342 835,313 845,278 867,253 878,217 893,191 913,163 926,136 947,107 957,78 976,58 992,38 1005,9 1024,-6 1038,-20 1055,-45 1070,-59 1087,-72 1100,-84 1117,-93 1131,-99 1149,-111 1164,-108 1186,-112 1201,-116 1215,-111 1235,-104 1250,-105 1267,-93 1277,-89 1295,-78 1312,-64 1327,-47 1346,-29 1364,-14 1374,0 1392,25 1411,47 1422,76 1431,100 1456,128 1473,152 1486,185 1503,207 1516,240 1538,272 1547,299 1568,331 1585,360 1600,393 1618,427 1635,455 1647,491 1664,517 1674,545 1697,570 1711,604 1727,635 1742,657 1760,682 1780,708 1787,732 1807,756 1828,776 1835,799 1857,808 1874,827 1884,841 1902,851 1919,862 1931,872 1955,878 1964,879 1986,887 1997,878 2016,879 2035,878 2047,874 2059,865 2078,856 2094,843 2115,833 2132,819 2143,799 2165,783 2173,764 2194,742 2208,720 2224,696 2237,663 2255,644 2273,616 2285,588 2302,557 2318,534 2336,494 2351,472 2366,441 2384,406 2397,372 2413,343 2437,314 2447,283 2463,251 2478,226 2499,187 2512,164 2528,133 2543,105 2568,80 2571,59 2591,34 2609,6 2626,-7 2636,-26 2658,-48 2672,-57 2689,-73 2700,-80 2718,-89 2738,-99 2750,-110 2767,-117 2784,-114 2801,-115 2817,-114 2837,-112 2848,-108 2865,-98 2880,-80 2900,-80 2917,-69 2926,-48 2951,-26 2960,-13 2977,6 2996,24 3006,46 3020,75 3040,102 3054,119 3068,154 3084,182 3102,207 3122,240 3127,267 3149,300 3171,333 3183,362"/>
</svg>
