<?xml version="1.0" encoding="utf-8" ?>
<svg baseProfile="full" fill="none" height="768" stroke="black" version="1.1" width="1024" xmlns="http://www.w3.org/2000/svg" xmlns:ev="http://www.w3.org/2001/xml-events" xmlns:xlink="http://www.w3.org/1999/xlink">
  <defs/>
  <polyline points="0,393 16,425 32,456 48,487 64,518 80,547 96,577 112,605 128,633 144,660 160,685 176,710 192,733 208,755 224,775 240,794 256,811 272,826 288,840 304,852 320,862 336,870 352,876 368,881 384,883 400,883 416,882 432,878 448,873 464,865 480,856 496,845 512,832 528,817 544,800 560,782 576,762 592,741 608,718 624,694 640,669 656,643 672,616 688,587 704,558 720,528 736,498 752,467 768,436 784,405 800,374 816,342 832,311 848,280 864,249 880,220 896,190 912,162 928,134 944,107 960,82 976,57 992,34 1008,12 1024,-7 1040,-26 1056,-43 1072,-58 1088,-72 1104,-84 1120,-94 1136,-102 1152,-108 1168,-113 1184,-115 1200,-115 1216,-114 1232,-110 1248,-105 1264,-97 1280,-88 1296,-77 1312,-64 1328,-49 1344,-32 1360,-14 1376,5 1392,26 1408,49 1424,73 1440,98 1456,124 1472,151 1488,180 1504,209 1520,239 1536,269 1552,300 1568,331 1584,362 1600,393 1616,425 1632,456 1648,487 1664,518 1680,547 1696,577 1712,605 1728,633 1744,660 1760,685 1776,710 1792,733 1808,755 1824,775 1840,794 1856,811 1872,826 1888,840 1904,852 1920,862 1936,870 1952,876 1968,881 1984,883 2000,883 2016,882 2032,878 2048,873 2064,865 2080,856 2096,845 2112,832 2128,817 2144,800 2160,782 2176,762 2192,741 2208,718 2224,694 2240,669 2256,643 2272,616 2288,587 2304,558 2320,528 2336,498 2352,467 2368,436 2384,405 2400,374 2416,342 2432,311 2448,280 2464,249 2480,220 2496,190 2512,162 2528,134 2544,107 2560,82 2576,57 2592,34 2608,12 2624,-7 2640,-26 2656,-43 2672,-58 2688,-72 2704,-84 2720,-94 2736,-102 2752,-108 2768,-113 2784,-115 2800,-115 2816,-114 2832,-110 2848,-105 2864,-97 2880,-88 2896,-77 2912,-64 2928,-49 2944,-32 2960,-14 2976,5 2992,26 3008,49 3024,73 3040,98 3056,124 3072,151 3088,180 3104,209 3120,239 3136,269 3152,300 3168,331 3184,362"/>
</svg>
