<?xml version="1.0" encoding="utf-8" ?>
<svg baseProfile="full" height="1024" version="1.1" width="768" xmlns="http://www.w3.org/2000/svg" xmlns:ev="http://www.w3.org/2001/xml-events" xmlns:xlink="http://www.w3.org/1999/xlink">
  <defs/>
  <line stroke="black" x1="421.5" x2="421.5" y1="805.5" y2="1061.5"/>
  <line stroke="black" x1="406.5" x2="406.5" y1="790.5" y2="1046.5"/>
  <line stroke="black" x1="199.5" x2="421.5" y1="677.5" y2="1061.5"/>
  <line stroke="black" x1="184.5" x2="406.5" y1="662.5" y2="1046.5"/>
  <line stroke="black" x1="199.5" x2="421.5" y1="677.5" y2="805.5"/>
  <line stroke="black" x1="184.5" x2="406.5" y1="662.5" y2="790.5"/>
  <line stroke="black" x1="642.5" x2="421.5" y1="677.5" y2="1061.5"/>
  <line stroke="black" x1="627.5" x2="406.5" y1="662.5" y2="1046.5"/>
  <line stroke="black" x1="642.5" x2="421.5" y1="677.5" y2="805.5"/>
  <line stroke="black" x1="627.5" x2="406.5" y1="662.5" y2="790.5"/>
  <line stroke="black" x1="642.5" x2="199.5" y1="677.5" y2="677.5"/>
  <line stroke="black" x1="627.5" x2="184.5" y1="662.5" y2="662.5"/>
  <line stroke="black" x1="421.5" x2="199.5" y1="549.5" y2="677.5"/>
  <line stroke="black" x1="406.5" x2="184.5" y1="534.5" y2="662.5"/>
  <line stroke="black" x1="421.5" x2="421.5" y1="549.5" y2="805.5"/>
  <line stroke="black" x1="406.5" x2="406.5" y1="534.5" y2="790.5"/>
  <line stroke="black" x1="421.5" x2="642.5" y1="549.5" y2="677.5"/>
  <line stroke="black" x1="406.5" x2="627.5" y1="534.5" y2="662.5"/>
  <line stroke="black" x1="199.5" x2="199.5" y1="421.5" y2="677.5"/>
  <line stroke="black" x1="184.5" x2="184.5" y1="406.5" y2="662.5"/>
  <line stroke="black" x1="199.5" x2="421.5" y1="421.5" y2="549.5"/>
  <line stroke="black" x1="184.5" x2="406.5" y1="406.5" y2="534.5"/>
  <line stroke="black" x1="642.5" x2="642.5" y1="421.5" y2="677.5"/>
  <line stroke="black" x1="627.5" x2="627.5" y1="406.5" y2="662.5"/>
  <line stroke="black" x1="642.5" x2="421.5" y1="421.5" y2="549.5"/>
  <line stroke="black" x1="627.5" x2="406.5" y1="406.5" y2="534.5"/>
  <line stroke="black" x1="642.5" x2="199.5" y1="421.5" y2="421.5"/>
  <line stroke="black" x1="627.5" x2="184.5" y1="406.5" y2="406.5"/>
  <line stroke="black" x1="199.5" x2="199.5" y1="165.5" y2="421.5"/>
  <line stroke="black" x1="184.5" x2="184.5" y1="150.5" y2="406.5"/>
  <line stroke="black" x1="199.5" x2="421.5" y1="165.5" y2="549.5"/>
  <line stroke="black" x1="184.5" x2="406.5" y1="150.5" y2="534.5"/>
  <line stroke="black" x1="642.5" x2="642.5" y1="165.5" y2="421.5"/>
  <line stroke="black" x1="627.5" x2="627.5" y1="150.5" y2="406.5"/>
  <line stroke="black" x1="642.5" x2="421.5" y1="165.5" y2="549.5"/>
  <line stroke="black" x1="627.5" x2="406.5" y1="150.5" y2="534.5"/>
  <line stroke="black" x1="642.5" x2="199.5" y1="165.5" y2="165.5"/>
  <line stroke="black" x1="627.5" x2="184.5" y1="150.5" y2="150.5"/>
  <line stroke="black" x1="421.5" x2="421.5" y1="37.5" y2="549.5"/>
  <line stroke="black" x1="406.5" x2="406.5" y1="22.5" y2="534.5"/>
  <line stroke="black" x1="421.5" x2="199.5" y1="37.5" y2="165.5"/>
  <line stroke="black" x1="406.5" x2="184.5" y1="22.5" y2="150.5"/>
  <line stroke="black" x1="421.5" x2="642.5" y1="37.5" y2="165.5"/>
  <line stroke="black" x1="406.5" x2="627.5" y1="22.5" y2="150.5"/>
  <circle cx="414" cy="30" fill="none" r="30" stroke="black"/>
  <circle cx="414" cy="286" fill="none" r="30" stroke="black"/>
  <circle cx="414" cy="542" fill="none" r="30" stroke="black"/>
  <circle cx="414" cy="798" fill="none" r="30" stroke="black"/>
  <circle cx="414" cy="1054" fill="none" r="30" stroke="black"/>
  <circle cx="635" cy="158" fill="none" r="30" stroke="black"/>
  <circle cx="192" cy="158" fill="none" r="30" stroke="black"/>
  <circle cx="635" cy="414" fill="none" r="30" stroke="black"/>
  <circle cx="192" cy="414" fill="none" r="30" stroke="black"/>
  <circle cx="635" cy="670" fill="none" r="30" stroke="black"/>
  <circle cx="192" cy="670" fill="none" r="30" stroke="black"/>
</svg>
