<?xml version="1.0" encoding="utf-8" ?>
<svg baseProfile="full" fill="none" height="768" stroke="black" version="1.1" width="1024" xmlns="http://www.w3.org/2000/svg" xmlns:ev="http://www.w3.org/2001/xml-events" xmlns:xlink="http://www.w3.org/1999/xlink">
  <defs/>
  <circle cx="512.0" cy="384.0" r="10"/>
  <circle cx="512.0" cy="384.0" r="15"/>
  <circle cx="512.0" cy="384.0" r="20"/>
  <circle cx="512.0" cy="384.0" r="25"/>
  <circle cx="512.0" cy="384.0" r="30"/>
  <circle cx="512.0" cy="384.0" r="35"/>
  <circle cx="512.0" cy="384.0" r="40"/>
  <circle cx="512.0" cy="384.0" r="45"/>
  <circle cx="512.0" cy="384.0" r="50"/>
  <circle cx="512.0" cy="384.0" r="55"/>
  <circle cx="512.0" cy="384.0" r="60"/>
  <circle cx="512.0" cy="384.0" r="65"/>
  <circle cx="512.0" cy="384.0" r="70"/>
  <circle cx="512.0" cy="384.0" r="75"/>
  <circle cx="512.0" cy="384.0" r="80"/>
  <circle cx="512.0" cy="384.0" r="85"/>
  <circle cx="512.0" cy="384.0" r="90"/>
  <circle cx="512.0" cy="384.0" r="95"/>
  <circle cx="512.0" cy="384.0" r="100"/>
  <circle cx="512.0" cy="384.0" r="105"/>
  <circle cx="512.0" cy="384.0" r="110"/>
  <circle cx="512.0" cy="384.0" r="115"/>
  <circle cx="512.0" cy="384.0" r="120"/>
  <circle cx="512.0" cy="384.0" r="125"/>
  <circle cx="512.0" cy="384.0" r="130"/>
  <circle cx="512.0" cy="384.0" r="135"/>
  <circle cx="512.0" cy="384.0" r="140"/>
  <circle cx="512.0" cy="384.0" r="145"/>
  <circle cx="512.0" cy="384.0" r="150"/>
  <circle cx="512.0" cy="384.0" r="155"/>
  <circle cx="512.0" cy="384.0" r="160"/>
  <circle cx="512.0" cy="384.0" r="165"/>
  <circle cx="512.0" cy="384.0" r="170"/>
  <circle cx="512.0" cy="384.0" r="175"/>
  <circle cx="512.0" cy="384.0" r="180"/>
  <circle cx="512.0" cy="384.0" r="185"/>
  <circle cx="512.0" cy="384.0" r="190"/>
  <circle cx="512.0" cy="384.0" r="195"/>
  <circle cx="512.0" cy="384.0" r="200"/>
  <circle cx="512.0" cy="384.0" r="205"/>
  <circle cx="512.0" cy="384.0" r="210"/>
  <circle cx="512.0" cy="384.0" r="215"/>
  <circle cx="512.0" cy="384.0" r="220"/>
  <circle cx="512.0" cy="384.0" r="225"/>
  <circle cx="512.0" cy="384.0" r="230"/>
  <circle cx="512.0" cy="384.0" r="235"/>
  <circle cx="512.0" cy="384.0" r="240"/>
  <circle cx="512.0" cy="384.0" r="245"/>
  <circle cx="512.0" cy="384.0" r="250"/>
  <circle cx="512.0" cy="384.0" r="255"/>
  <circle cx="512.0" cy="384.0" r="260"/>
  <circle cx="512.0" cy="384.0" r="265"/>
  <circle cx="512.0" cy="384.0" r="270"/>
  <circle cx="512.0" cy="384.0" r="275"/>
  <circle cx="512.0" cy="384.0" r="280"/>
  <circle cx="512.0" cy="384.0" r="285"/>
  <circle cx="512.0" cy="384.0" r="290"/>
  <circle cx="512.0" cy="384.0" r="295"/>
  <ellipse cx="512.0" cy="384.0" rx="10" ry="0"/>
  <ellipse cx="512.0" cy="384.0" rx="15" ry="5"/>
  <ellipse cx="512.0" cy="384.0" rx="20" ry="10"/>
  <ellipse cx="512.0" cy="384.0" rx="25" ry="15"/>
  <ellipse cx="512.0" cy="384.0" rx="30" ry="20"/>
  <ellipse cx="512.0" cy="384.0" rx="35" ry="25"/>
  <ellipse cx="512.0" cy="384.0" rx="40" ry="30"/>
  <ellipse cx="512.0" cy="384.0" rx="45" ry="35"/>
  <ellipse cx="512.0" cy="384.0" rx="50" ry="40"/>
  <ellipse cx="512.0" cy="384.0" rx="55" ry="45"/>
  <ellipse cx="512.0" cy="384.0" rx="60" ry="50"/>
  <ellipse cx="512.0" cy="384.0" rx="65" ry="55"/>
  <ellipse cx="512.0" cy="384.0" rx="70" ry="60"/>
  <ellipse cx="512.0" cy="384.0" rx="75" ry="65"/>
  <ellipse cx="512.0" cy="384.0" rx="80" ry="70"/>
  <ellipse cx="512.0" cy="384.0" rx="85" ry="75"/>
  <ellipse cx="512.0" cy="384.0" rx="90" ry="80"/>
  <ellipse cx="512.0" cy="384.0" rx="95" ry="85"/>
  <ellipse cx="512.0" cy="384.0" rx="100" ry="90"/>
  <ellipse cx="512.0" cy="384.0" rx="105" ry="95"/>
  <ellipse cx="512.0" cy="384.0" rx="110" ry="100"/>
  <ellipse cx="512.0" cy="384.0" rx="115" ry="105"/>
  <ellipse cx="512.0" cy="384.0" rx="120" ry="110"/>
  <ellipse cx="512.0" cy="384.0" rx="125" ry="115"/>
  <ellipse cx="512.0" cy="384.0" rx="130" ry="120"/>
  <ellipse cx="512.0" cy="384.0" rx="135" ry="125"/>
  <ellipse cx="512.0" cy="384.0" rx="140" ry="130"/>
  <ellipse cx="512.0" cy="384.0" rx="145" ry="135"/>
  <ellipse cx="512.0" cy="384.0" rx="150" ry="140"/>
  <ellipse cx="512.0" cy="384.0" rx="155" ry="145"/>
  <ellipse cx="512.0" cy="384.0" rx="160" ry="150"/>
  <ellipse cx="512.0" cy="384.0" rx="165" ry="155"/>
  <ellipse cx="512.0" cy="384.0" rx="170" ry="160"/>
  <ellipse cx="512.0" cy="384.0" rx="175" ry="165"/>
  <ellipse cx="512.0" cy="384.0" rx="180" ry="170"/>
  <ellipse cx="512.0" cy="384.0" rx="185" ry="175"/>
  <ellipse cx="512.0" cy="384.0" rx="190" ry="180"/>
  <ellipse cx="512.0" cy="384.0" rx="195" ry="185"/>
  <ellipse cx="512.0" cy="384.0" rx="200" ry="190"/>
  <ellipse cx="512.0" cy="384.0" rx="205" ry="195"/>
  <ellipse cx="512.0" cy="384.0" rx="210" ry="200"/>
  <ellipse cx="512.0" cy="384.0" rx="215" ry="205"/>
  <ellipse cx="512.0" cy="384.0" rx="220" ry="210"/>
  <ellipse cx="512.0" cy="384.0" rx="225" ry="215"/>
  <ellipse cx="512.0" cy="384.0" rx="230" ry="220"/>
  <ellipse cx="512.0" cy="384.0" rx="235" ry="225"/>
  <ellipse cx="512.0" cy="384.0" rx="240" ry="230"/>
  <ellipse cx="512.0" cy="384.0" rx="245" ry="235"/>
  <ellipse cx="512.0" cy="384.0" rx="250" ry="240"/>
  <ellipse cx="512.0" cy="384.0" rx="255" ry="245"/>
  <ellipse cx="512.0" cy="384.0" rx="260" ry="250"/>
  <ellipse cx="512.0" cy="384.0" rx="265" ry="255"/>
  <ellipse cx="512.0" cy="384.0" rx="270" ry="260"/>
  <ellipse cx="512.0" cy="384.0" rx="275" ry="265"/>
  <ellipse cx="512.0" cy="384.0" rx="280" ry="270"/>
  <ellipse cx="512.0" cy="384.0" rx="285" ry="275"/>
  <ellipse cx="512.0" cy="384.0" rx="290" ry="280"/>
  <ellipse cx="512.0" cy="384.0" rx="295" ry="285"/>
</svg>
