<?xml version="1.0" encoding="utf-8" ?>
<svg baseProfile="full" fill="none" height="768" stroke="black" version="1.1" width="1024" xmlns="http://www.w3.org/2000/svg" xmlns:ev="http://www.w3.org/2001/xml-events" xmlns:xlink="http://www.w3.org/1999/xlink">
  <defs/>
  <polyline points="0,393.99933334666656 16,633.5911458969409 32,811.4374435119172 48,883.5414282037883 64,832.0655374753464 80,669.7442189703919 96,436.7335982599955 112,190.67738986557518 128,-7.5533875886195005 144,-108.91908814099787 160,-88.34319172955344 176,49.08409976930358 192,269.36511047942656 208,518.0052613247587 224,733.494300840393 240,862.5231196026332 256,873.1717116860395 272,762.8057576753013 288,558.7283200938474 304,311.4254305068603 320,82.07651980986088 336,-72.5805556122802 352,-114.28570153222029 368,-32.72162203377445 384,151.93381931839926 400,393.9993333466687 416,633.5911458969431 432,811.4374435119187 448,883.5414282037884 464,832.0655374753449 480,669.7442189703888 496,436.73359825999137 512,190.67738986557174 528,-7.553387588622115 544,-108.91908814099867 560,-88.34319172955173 576,49.08409976930773 592,269.36511047943236 608,518.0052613247649 624,733.4943008403977 640,862.5231196026353 656,873.171711686038 672,762.8057576752963 688,558.7283200938401 704,311.42543050685265 720,82.07651980985474 736,-72.58055561228332 752,-114.2857015322196 768,-32.72162203377019 784,151.93381931840614 800,393.9993333466765 816,633.5911458969498 832,811.4374435119228 848,883.5414282037889 864,832.0655374753414 880,669.7442189703825 896,436.73359825998364 912,190.67738986556378 928,-7.553387588627459 944,-108.91908814100009 960,-88.34319172954889 976,49.08409976931415 992,269.3651104794408 1008,518.0052613247733 1024,733.4943008404027 1040,862.5231196026368 1056,873.1717116860373 1072,762.8057576752954 1088,558.7283200938404 1104,311.4254305068547 1120,82.07651980985776 1136,-72.58055561228105 1152,-114.28570153222023 1168,-32.72162203377519 1184,151.93381931839647 1200,393.99933334666383 1216,633.5911458969373 1232,811.4374435119142 1248,883.541428203788 1264,832.0655374753501"/>
</svg>
